<?xml version="1.0" encoding="UTF-8" standalone="no"?>
<svg
   xmlns:dc="http://purl.org/dc/elements/1.1/"
   xmlns:cc="http://creativecommons.org/ns#"
   xmlns:rdf="http://www.w3.org/1999/02/22-rdf-syntax-ns#"
   xmlns:svg="http://www.w3.org/2000/svg"
   xmlns="http://www.w3.org/2000/svg"
   xmlns:sodipodi="http://sodipodi.sourceforge.net/DTD/sodipodi-0.dtd"
   xmlns:inkscape="http://www.inkscape.org/namespaces/inkscape"
   height="64"
   width="64"
   version="1.1"
   id="svg2"
   inkscape:version="0.91 r13725"
   sodipodi:docname="piggie.svg">
  <metadata
     id="metadata52">
    <rdf:RDF>
      <cc:Work
         rdf:about="">
        <dc:format>image/svg+xml</dc:format>
        <dc:type
           rdf:resource="http://purl.org/dc/dcmitype/StillImage" />
      </cc:Work>
    </rdf:RDF>
  </metadata>
  <sodipodi:namedview
     pagecolor="#ffffff"
     bordercolor="#666666"
     borderopacity="1"
     objecttolerance="10"
     gridtolerance="10"
     guidetolerance="10"
     inkscape:pageopacity="0"
     inkscape:pageshadow="2"
     inkscape:window-width="1920"
     inkscape:window-height="1024"
     id="namedview50"
     showgrid="false"
     inkscape:zoom="4"
     inkscape:cx="-45.296094"
     inkscape:cy="26.393926"
     inkscape:window-x="0"
     inkscape:window-y="31"
     inkscape:window-maximized="1"
     inkscape:current-layer="svg2" />
  <defs
     id="defs4">
    <linearGradient
       id="c"
       y2="40.496"
       gradientUnits="userSpaceOnUse"
       x2="71.204"
       gradientTransform="matrix(2.3269 0 0 2.3269 -135.94 -32.843)"
       y1="15.369"
       x1="71.204">
      <stop
         stop-color="#fff"
         offset="0"
         id="stop7" />
      <stop
         stop-color="#fff"
         stop-opacity=".23529"
         offset=".42448"
         id="stop9" />
      <stop
         stop-color="#fff"
         stop-opacity=".15686"
         offset=".82090"
         id="stop11" />
      <stop
         stop-color="#fff"
         stop-opacity=".39216"
         offset="1"
         id="stop13" />
    </linearGradient>
    <radialGradient
       id="a"
       gradientUnits="userSpaceOnUse"
       cy="3.8502"
       cx="17.187"
       gradientTransform="matrix(0 8.3346 -10.16 0 71.885 -169.24)"
       r="20.397">
      <stop
         stop-color="#ffcd7d"
         offset="0"
         id="stop16" />
      <stop
         stop-color="#fc8f36"
         offset=".26238"
         id="stop18" />
      <stop
         stop-color="#e23a0e"
         offset=".70495"
         id="stop20" />
      <stop
         stop-color="#ac441f"
         offset="1"
         id="stop22" />
    </radialGradient>
    <radialGradient
       id="b"
       gradientUnits="userSpaceOnUse"
       cy="186.17"
       cx="99.157"
       gradientTransform="matrix(1 0 0 .16667 0 155.14)"
       r="62.769">
      <stop
         stop-color="#3d3d3d"
         offset="0"
         id="stop25" />
      <stop
         stop-color="#686868"
         stop-opacity=".49804"
         offset=".5"
         id="stop27" />
      <stop
         stop-color="#686868"
         stop-opacity="0"
         offset="1"
         id="stop29" />
    </radialGradient>
    <linearGradient
       id="d"
       y2="27.567339"
       gradientUnits="userSpaceOnUse"
       x2="33.314564"
       y1="11.119"
       x1="30">
      <stop
         stop-color="#fff5ef"
         offset="0"
         id="stop32" />
      <stop
         stop-color="#fef8dd"
         offset="1"
         id="stop34" />
    </linearGradient>
  </defs>
  <path
     d="m161.93 186.17a62.769 10.462 0 1 1 -125.54 0 62.769 10.462 0 1 1 125.54 0z"
     transform="matrix(.38235 0 0 .71691 -5.913 -76.968)"
     fill="url(#b)"
     id="path36" />
  <path
     style="color:#000000"
     d="m32 2.5c-16.277 0-29.5 13.223-29.5 29.5s13.223 29.5 29.5 29.5 29.5-13.223 29.5-29.5-13.223-29.5-29.5-29.5z"
     fill="url(#a)"
     id="path38" />
  <path
     opacity=".4"
     stroke-linejoin="round"
     style="color:#000000"
     d="m32 2.5c-16.277 0-29.5 13.223-29.5 29.5s13.223 29.5 29.5 29.5 29.5-13.223 29.5-29.5-13.223-29.5-29.5-29.5z"
     stroke="#640000"
     stroke-linecap="round"
     fill="none"
     id="path40" />
  <path
     opacity=".8"
     stroke-linejoin="round"
     style="color:#000000"
     d="m60.5 32c0 15.74-12.76 28.5-28.5 28.5s-28.5-12.76-28.5-28.5 12.76-28.5 28.5-28.5 28.5 12.76 28.5 28.5z"
     stroke="url(#c)"
     stroke-linecap="round"
     fill="none"
     id="path42" />
  <path
     style="color:#000000;text-indent:0;text-decoration:none;text-decoration-line:none;text-decoration-style:solid;text-decoration-color:#000000;text-transform:none;block-progression:tb;white-space:normal;opacity:0.15;isolation:auto;mix-blend-mode:normal;solid-color:#000000;fill:#ae2109;color-rendering:auto;image-rendering:auto;shape-rendering:auto"
     d="m 30.713,12.449 c -0.438077,0.02376 -0.809521,0.330261 -0.91602,0.75586 l -1.109,4.449 C 28.3637,17.57837 28.0331,17.50246 27.71923,17.42534 27.66869,17.40349 27.616426,17.38586 27.56298,17.37261 l -4.5391,-1.1348 c -0.536141,-0.133975 -1.079319,0.192281 -1.2129,0.72852 l -0.87695,3.5176 c -0.134102,0.542852 0.20294,1.090194 0.74805,1.2148 0,0 0.60688,0.14035 1.2051,0.2832 0.2991,0.07142 0.5972,0.14309 0.80664,0.19727 0.09396,0.0243 0.1621,0.04469 0.20312,0.05664 0.05054,0.02185 0.102804,0.03948 0.15625,0.05273 0.47891,0.11956 0.60408,0.26757 0.67969,0.38672 0.06916,0.10898 0.0957,0.27206 0.0918,0.45898 l -1.4902,5.9824 -0.0098,0.03711 c -0.002,0.0071 -0.004,0.0143 -0.0059,0.02148 l -2.125,8.5215 c -0.03793,0.07968 -0.09133,0.15883 -0.10938,0.17188 -0.750481,2.271239 2.173137,0.27089 2.183681,0.272232 -0.59735,-0.15402 -1.2012,-0.31445 -1.2012,-0.31445 -0.477972,-0.126797 -0.976856,0.114765 -1.1738,0.56836 l -1.6348,3.7676 c -0.02286,1.187493 0.542184,1.272894 1.382709,1.878178 0.46327,0.11609 0.92003,0.23581 1.3789,0.35547 l -1.1211,4.5078 c -0.132707,0.535481 0.193264,1.077289 0.72852,1.2109 l 3.2871,0.82031 c 0.535537,0.134095 1.078435,-0.191116 1.2129,-0.72656 2.46e-4,-2.50834 2.465719,-18.473625 20.01359,-21.07817 0.03704,-0.08273 0.06267,-0.170121 0.07617,-0.25976 l 0,-0.002 c 0.339,-2.265 -0.413,-4.2 -1.795,-5.594 -1.188,-1.197 -2.826,-2.017 -4.617,-2.705 l 1.1426,-4.582 c 0.134095,-0.535537 -0.191116,-1.078435 -0.72656,-1.2129 l -3.293,-0.82031 c -0.536141,-0.133975 -1.079319,0.192281 -1.2129,0.72852 l -1.0742,4.3086 c -0.23014,-0.0545 -0.45892,-0.10876 -0.68945,-0.16211 l 1.0762,-4.3184 c 0.134095,-0.535537 -0.191116,-1.078435 -0.72656,-1.2129 l -3.291,-0.82031 c -0.09704,-0.0239 -0.19711,-0.03311 -0.29688,-0.02734 z m 0.7832,2.2109 1.3496,0.33594 -1.0801,4.3301 c -0.135391,0.543514 0.201951,1.092244 0.74805,1.2168 0.88281,0.20149 1.7645,0.4047 2.6172,0.61719 0.536141,0.133975 1.079319,-0.192281 1.2129,-0.72852 l 1.0703,-4.2969 1.3516,0.33789 -1.1055,4.4375 c -0.125443,0.50306 0.154358,1.018572 0.64453,1.1875 2.0037,0.6902 3.6701,1.5485 4.6973,2.584 1.0267,1.035 1.4955,2.1672 1.2383,3.8906 -1.13e-4,7.6e-4 1.14e-4,0.0012 0,0.002 l -0.002,0.002 c -0.38615,2.6109 -1.5852,3.5768 -3.4375,4.0039 C 22.58356,30.966505 30.660418,28.38206 28.803519,30.213599 L 24.42575,48.75294 23.07805,48.417 l 1.1211,-4.5 c 0.133179,-0.533511 -0.189338,-1.074464 -0.722,-1.211 -0.762,-0.195 -1.545,-0.405 -2.352,-0.607 l -0.002,0 c 1.017424,-1.58605 1.012075,-1.458993 1.13084,-2.61135 0.46022,-0.3327 0.68042,-0.75108 0.80664,-1.0645 0.0174,-0.04321 0.03176,-0.08759 0.04297,-0.13281 l 1.9668,-7.8887 c 0.558717,-0.27245 0.736173,-0.983202 0.37109,-1.4863 l 1.3555,-5.4395 c 0.01557,-0.06079 0.02538,-0.122918 0.0293,-0.18555 0.02813,-0.4881 -0.03814,-1.1074 -0.40625,-1.6875 -0.26575,-0.41878 -0.82751,-0.65808 -1.3613,-0.9043 -0.03948,-0.05315 -0.08184,-0.1131 -0.08203,-0.11328 -4.9e-4,-4.59e-4 -0.09587,-0.08145 -0.12891,-0.10352 -0.13215,-0.08826 -0.16492,-0.08906 -0.20117,-0.10352 -0.0725,-0.02892 -0.10842,-0.03951 -0.15234,-0.05273 -0.08784,-0.02645 -0.18573,-0.05176 -0.30274,-0.08203 -0.23401,-0.06053 -0.53673,-0.13418 -0.8418,-0.20703 -0.116,-0.0277 -0.12042,-0.02829 -0.23242,-0.05469 l 0.38867,-1.5605 2.627,0.65625 0.20508,-0.93164 c -0.115223,0.528774 0.211074,1.053275 0.73633,1.1836 0.69468,0.17272 1.4038,0.33468 2.1211,0.49805 0.530195,0.120272 1.059356,-0.205033 1.1914,-0.73242 l 1.1074,-4.4355 z m 0.39648,7.7969 c -0.475092,-0.02052 -0.898937,0.29633 -1.0137,0.75781 l -1.6387,6.5723 c -0.133949,0.53663 0.193111,1.080089 0.73,1.213 0.85355,0.21274 2.8363,0.84155 4.8105,0.91406 0.98711,0.03626 2.002,-0.05688 2.9219,-0.50391 0.91983,-0.44703 1.6987,-1.3224 1.9941,-2.5059 0.30232,-1.2131 0.04029,-2.3678 -0.5625,-3.209 -0.603,-0.841 -1.465,-1.398 -2.36,-1.82 -1.789,-0.845 -3.857,-1.183 -4.683,-1.389 -0.06462,-0.01632 -0.130701,-0.02613 -0.19727,-0.0293 z m 0.67383,2.25 c 1.039,0.23456 2.245,0.45327 3.3535,0.97656 0.71279,0.33647 1.2824,0.75139 1.5879,1.1777 0.30554,0.42635 0.42906,0.83422 0.24805,1.5605 -0.16876,0.67433 -0.45477,0.9596 -0.92773,1.1895 -0.47345,0.23009 -1.1812,0.33188 -1.9746,0.30273 -1.2326,-0.04527 -2.4001,-0.39697 -3.4199,-0.66406 l 1.1328,-4.543 z m -3.2383,7.6406 c -0.438077,0.02376 -0.809521,0.330261 -0.91602,0.75586 l -1.8066,7.248 c -0.133975,0.536141 0.192281,1.079319 0.72852,1.2129 3.117501,-10.818512 -4.83183,-10.988943 3.3073,-9.191794 -2.104,-0.955 0.007,0.259184 -1.016,0.0042 -0.09694,-0.02455 -0.197012,-0.03443 -0.29688,-0.0293 z"
     id="path44"
     inkscape:connector-curvature="0"
     sodipodi:nodetypes="cccccccccsccccccccccccccccccccccccccccccccccccccccccccccsccccccccccccccccccccccsccscccccccccccccscccccccccccccccccccccccc" />
  <path
     d="m 45.228,28.722 c 0.59725,-3.9923 -2.4424,-6.1385 -6.5988,-7.5702 l 1.3483,-5.4081 -3.2919,-0.8204 -1.3126,5.2656 c -0.865,-0.216 -1.754,-0.419 -2.637,-0.621 l 1.322,-5.3003 -3.29,-0.8204 -1.3492,5.4062 c -0.71633,-0.16314 -1.4195,-0.32441 -2.1021,-0.49412 l 0.0037,-0.01688 -4.5399,-1.1336 -0.87572,3.516 c 0,0 2.4424,0.55975 2.3909,0.59444 1.3333,0.33285 1.5742,1.2151 1.5339,1.9146 l -1.5358,6.161 c 0.09189,0.02344 0.21096,0.05719 0.34222,0.1097 -0.1097,-0.02719 -0.2269,-0.05719 -0.34785,-0.08626 -1.268144,4.443016 -1.816678,9.857145 -3.930672,13.258408 0.8019,0.326594 1.985541,0.768006 2.873072,0.998692 l -1.3623,5.47 3.2882,0.8204 1.3492,-5.4118 c -2.64672,-20.286595 -6.156885,-10.369642 14.5194,-10.999 2.1509,-0.49599 3.771,-1.9108 4.2033,-4.8333 z m -17.6534,11.8709 1.8077,-7.2467 c -3.749703,6.973038 0.845607,0.0652 -1.8077,7.2467 z M 38.7248,28.663 c -0.92822,3.7185 -6.657,1.8293 -8.5153,1.3661 l 1.6389,-6.5726 c 1.8583,0.46318 7.843,1.3276 6.8764,5.2065 z"
     id="path46"
     inkscape:connector-curvature="0"
     style="opacity:0.3;fill:#ae2109"
     sodipodi:nodetypes="ccccccccccccccccccccccccccccccccc" />
  <path
     d="m 45.228,27.722 c 0.59725,-3.9923 -2.4424,-6.1385 -6.5988,-7.5702 l 1.3483,-5.4081 -3.2919,-0.8204 -1.3126,5.2656 c -0.8654,-0.21565 -1.7542,-0.41911 -2.6375,-0.62069 l 1.322,-5.3003 -3.29,-0.8204 -1.3492,5.4062 C 28.70197,17.69057 27.9988,17.5293 27.3162,17.35959 l 0.0037,-0.01688 -4.5399,-1.1336 -0.87572,3.516 c 0,0 2.4424,0.55975 2.3909,0.59444 1.3333,0.33285 1.5742,1.2151 1.5339,1.9146 l -1.5358,6.161 c 0.09189,0.02344 0.21096,0.05719 0.34222,0.1097 -0.1097,-0.02719 -0.2269,-0.05719 -0.34785,-0.08626 l -2.1527,8.6306 c -0.245304,0.662717 0.051,-0.145722 -0.329912,0.903802 L 20.770082,42.008828 20.88325,42.07 c 0.79696,0.19971 1.578,0.40879 2.3468,0.60569 l -1.3623,5.47 3.2882,0.8204 c 6.58434,-17.648915 -0.550343,-16.998896 15.8686,-16.4108 2.1509,-0.49599 3.771,-1.9108 4.2033,-4.8333 z m -6.5032,-0.059 c -0.92822,3.7185 -6.657,1.8293 -8.5153,1.3661 l 1.6389,-6.5726 c 1.8583,0.46318 7.843,1.3276 6.8764,5.2065 z"
     id="path48"
     inkscape:connector-curvature="0"
     style="fill:url(#d)"
     sodipodi:nodetypes="cccccccccccccccccccccccccccccccc" />
</svg>
